<svg width="39" height="25" viewBox="0 0 39 25" fill="none" xmlns="http://www.w3.org/2000/svg">
<path d="M38.4851 19.1245H29.2247C29.2395 19.3031 29.2514 19.4433 29.2603 19.5835C29.3122 20.4305 29.3746 21.2791 29.1119 22.107C28.5792 23.7569 27.1014 24.8563 25.2674 24.8696C21.4095 24.8961 17.5517 24.9035 13.6938 24.8696C11.3019 24.8474 9.65343 23.1193 9.64304 20.7375C9.64304 20.2225 9.64304 19.7045 9.64304 19.1481H0.511768C0.424224 17.4067 0.823365 15.8454 1.76854 14.4257C2.68274 13.048 4.02435 12.0049 5.58931 11.4551C3.18853 9.58677 3.38143 6.56003 5.00322 4.90572C5.80371 4.10227 6.88678 3.6396 8.02379 3.61537C9.1608 3.59114 10.2628 4.00724 11.0972 4.77585C12.667 6.21175 13.2605 9.38165 10.7203 11.4049L13.2131 12.8452C14.2085 12.0371 15.3496 11.4251 16.5753 11.0419C13.0142 8.69247 13.5439 4.31542 15.6851 2.37187C16.2274 1.86638 16.8668 1.47495 17.5648 1.22102C18.2629 0.967091 19.0053 0.85588 19.7476 0.894047C20.4899 0.932214 21.2168 1.11897 21.8848 1.44315C22.5528 1.76732 23.1482 2.22223 23.6352 2.78065C25.6339 5.05034 25.4826 8.9463 22.3577 11.0138C22.4734 11.0655 22.5624 11.1142 22.6544 11.1466C23.7128 11.4941 24.6981 12.0318 25.5612 12.7331C25.766 12.9013 25.8847 12.8674 26.0954 12.7331C26.8076 12.2593 27.548 11.824 28.281 11.3724C27.094 10.4427 26.4544 9.16914 26.5613 7.57829C26.5958 7.03011 26.739 6.49414 26.9827 6.00126C27.2264 5.50838 27.5658 5.06834 27.9813 4.70649C28.816 3.96626 29.9046 3.57312 31.0224 3.60827C32.1402 3.64342 33.2017 4.10418 33.9877 4.89539C35.5694 6.49804 35.8513 9.52922 33.409 11.4492C34.9776 12.0086 36.3214 13.059 37.2385 14.4427C38.1557 15.8264 38.5968 17.4688 38.4954 19.123L38.4851 19.1245ZM19.448 23.6727H20.5979C22.2419 23.6727 23.8875 23.6934 25.53 23.6432C26.8254 23.6034 27.9308 22.4907 28.0347 21.2023C28.2361 19.0363 27.6058 16.8746 26.2705 15.1518C24.0448 12.2003 19.8605 10.9991 16.424 12.3671C13.2724 13.6229 11.4221 15.9531 10.9161 19.2898C10.7956 20.0418 10.8036 20.8086 10.9399 21.558C11.2025 22.8862 12.3272 23.6609 13.7739 23.6683C15.6717 23.6786 17.5635 23.6727 19.4539 23.6727H19.448ZM19.4153 10.6021C20.2632 10.6062 21.0931 10.3598 21.8 9.89412C22.5068 9.42846 23.0587 8.76453 23.3857 7.98651C23.7127 7.20849 23.8 6.35142 23.6366 5.52398C23.4731 4.69655 23.0663 3.93601 22.4678 3.33881C21.8692 2.74161 21.1058 2.33465 20.2743 2.16952C19.4429 2.0044 18.5809 2.08855 17.7976 2.41131C17.0143 2.73407 16.345 3.28089 15.8746 3.98245C15.4042 4.68401 15.1539 5.5087 15.1553 6.35195C15.1565 7.47752 15.6061 8.55676 16.4056 9.35335C17.2052 10.1499 18.2895 10.599 19.4213 10.6021H19.4153ZM26.6755 13.7602C27.7113 14.9018 28.4809 16.2568 28.9294 17.7284C28.9591 17.8229 29.192 17.907 29.33 17.9085C31.8391 17.9188 34.3482 17.9085 36.8573 17.9085H37.2594C36.8514 15.3909 35.5531 13.5919 33.2131 12.6696C30.8732 11.7473 28.692 12.1959 26.6815 13.7602H26.6755ZM1.71513 17.8627C1.7599 17.8831 1.80663 17.8989 1.8546 17.91C4.4735 17.91 7.0924 17.9188 9.71872 17.91C9.8211 17.91 9.9769 17.7506 10.0155 17.6355C10.2885 16.7291 10.6956 15.8682 11.2233 15.081C11.5393 14.6279 11.8762 14.1955 12.2263 13.7144C10.2232 12.1708 8.03016 11.7517 5.69318 12.6976C3.38736 13.6347 2.10536 15.4174 1.71513 17.8627ZM34.004 7.90885C34.004 7.29237 33.82 6.68977 33.4753 6.17739C33.1306 5.66501 32.6408 5.26591 32.0678 5.03068C31.4949 4.79544 30.8646 4.73464 30.2569 4.85599C29.6492 4.97734 29.0914 5.27537 28.6541 5.71232C28.2169 6.14928 27.9199 6.70548 27.8007 7.31048C27.6816 7.91547 27.7457 8.54201 27.985 9.11072C28.2242 9.67943 28.6278 10.1647 29.1446 10.5051C29.6614 10.8455 30.2682 11.0256 30.888 11.0227C31.7139 11.0126 32.5028 10.6809 33.0854 10.0987C33.668 9.51649 33.9978 8.73025 34.004 7.90885ZM11.2055 7.74062C11.1673 6.9187 10.8024 6.14552 10.1911 5.59118C9.57971 5.03684 8.77199 4.74674 7.94558 4.78471C7.11917 4.82267 6.34178 5.18559 5.78441 5.79362C5.22705 6.40165 4.93537 7.20499 4.97354 8.02691C5.0685 9.89373 6.58346 11.0906 8.19783 11.005C10.017 10.9076 11.345 9.41706 11.2055 7.74062Z" fill="#F8777D"/>
</svg>
