<svg width="26" height="43" viewBox="0 0 26 43" fill="none" xmlns="http://www.w3.org/2000/svg">
<path d="M25.5905 29.1293C25.5905 30.7933 25.1585 32.3613 24.2945 33.8333C23.4625 35.2733 22.2145 36.4733 20.5505 37.4333C18.9185 38.3613 16.9825 38.9053 14.7425 39.0653V42.9533H11.6705V39.0173C8.47051 38.7293 5.89451 37.7693 3.94251 36.1373C1.99051 34.4733 0.982512 32.2333 0.918512 29.4173H8.11851C8.31051 31.7213 9.49451 33.1133 11.6705 33.5933V24.4253C9.36651 23.8493 7.51051 23.2733 6.10251 22.6973C4.69451 22.1213 3.47851 21.1933 2.45451 19.9133C1.43051 18.6333 0.918512 16.8893 0.918512 14.6813C0.918512 11.8973 1.91051 9.62534 3.89451 7.86534C5.91051 6.10534 8.50251 5.09734 11.6705 4.84134V0.953341H14.7425V4.84134C17.8145 5.09734 20.2625 6.02534 22.0865 7.62534C23.9425 9.22534 24.9825 11.4333 25.2065 14.2493H17.9585C17.8625 13.3213 17.5265 12.5213 16.9505 11.8493C16.4065 11.1453 15.6705 10.6493 14.7425 10.3613V19.4333C17.1425 20.0413 19.0305 20.6333 20.4065 21.2093C21.8145 21.7533 23.0305 22.6653 24.0545 23.9453C25.0785 25.1933 25.5905 26.9213 25.5905 29.1293ZM7.92651 14.3453C7.92651 15.4013 8.24651 16.2653 8.88651 16.9373C9.52651 17.5773 10.4545 18.1053 11.6705 18.5213V10.2173C10.5185 10.3773 9.60651 10.8093 8.93451 11.5133C8.26251 12.2173 7.92651 13.1613 7.92651 14.3453ZM14.7425 33.6893C15.9585 33.4653 16.9025 32.9693 17.5745 32.2013C18.2785 31.4333 18.6305 30.5053 18.6305 29.4173C18.6305 28.3613 18.2945 27.5133 17.6225 26.8733C16.9505 26.2333 15.9905 25.7053 14.7425 25.2893V33.6893Z" fill="#F8777D"/>
</svg>
