<?xml version="1.0" encoding="UTF-8" standalone="no" ?>
<!DOCTYPE svg PUBLIC "-//W3C//DTD SVG 1.1//EN" "http://www.w3.org/Graphics/SVG/1.1/DTD/svg11.dtd">
<svg xmlns="http://www.w3.org/2000/svg" xmlns:xlink="http://www.w3.org/1999/xlink" version="1.1" width="42" height="42" viewBox="0 0 42 42" xml:space="preserve">
<desc>Created with Fabric.js 4.6.0</desc>
<defs>
</defs>
<g transform="matrix(1.22 0 0 1.22 21 21)" id="BFWWSaNmyaRJaY2aSQMyC"  >
<g style="" vector-effect="non-scaling-stroke"   >
		<g transform="matrix(1 0 0 1 0 0)" id="8b7NPBNVSH3RrLcgxZpZc"  >
<path style="stroke: none; stroke-width: 1; stroke-dasharray: none; stroke-linecap: butt; stroke-dashoffset: 0; stroke-linejoin: miter; stroke-miterlimit: 4; fill: rgb(248,119,125); fill-rule: nonzero; opacity: 1;" vector-effect="non-scaling-stroke"  transform=" translate(-16.49, -16.49)" d="M 0 16.4927 C 0 7.384029999999999 7.38403 0 16.4927 0 C 25.60137 0 32.9854 7.38403 32.9854 16.4927 C 32.9854 25.60137 25.60137 32.9854 16.4927 32.9854 C 7.384029999999999 32.9854 0 25.60137 0 16.4927 z" stroke-linecap="round" />
</g>
		<g transform="matrix(1 0 0 1 0 0)" id="KyvgPolr6YPtfwBXLS3Ai"  >
<path style="stroke: none; stroke-width: 1; stroke-dasharray: none; stroke-linecap: butt; stroke-dashoffset: 0; stroke-linejoin: miter; stroke-miterlimit: 4; fill: rgb(236,227,226); fill-rule: nonzero; opacity: 1;" vector-effect="non-scaling-stroke"  transform=" translate(-11.42, -11.42)" d="M 0 11.418 C 0 5.112009999999999 5.11201 0 11.418 0 C 17.72399 0 22.836 5.11201 22.836 11.418 C 22.836 17.72399 17.72399 22.836 11.418 22.836 C 5.112009999999999 22.836 0 17.72399 0 11.418 z" stroke-linecap="round" />
</g>
</g>
</g>
</svg>